<svg width="251" height="77" viewBox="0 0 251 77" fill="none" xmlns="http://www.w3.org/2000/svg">
<g filter="url(#filter0_d_168_2323)">
<rect x="13" y="9" width="224.877" height="50.9995" rx="25.4998" fill="white" shape-rendering="crispEdges"/>
<rect x="13.6259" y="9.62586" width="223.625" height="49.7478" rx="24.8739" stroke="#8E8DFF" stroke-width="1.25171" shape-rendering="crispEdges"/>
<path d="M50.9559 29.1929C50.9559 29.5326 50.7722 29.8356 50.4784 30.0009L46.3192 32.2779L44.0421 36.4372C43.886 36.731 43.5738 36.9146 43.2433 36.9146C42.9036 36.9146 42.6006 36.731 42.4353 36.4372L40.1583 32.2779L36.0082 30.0009C35.7052 29.8356 35.5308 29.5326 35.5308 29.1929C35.5308 28.8623 35.7052 28.5502 36.0082 28.3941L40.1583 26.1171L42.4353 21.9578C42.7567 21.3702 43.73 21.3702 44.0421 21.9578L46.3192 26.1171L50.4784 28.3941C50.7722 28.5502 50.9559 28.8623 50.9559 29.1929Z" fill="#8E8DFF"/>
<path d="M54.8278 41.7439C54.8278 42.0836 54.6442 42.3866 54.3504 42.5519L51.4766 44.1219L49.9065 47.0049C49.7413 47.2987 49.4291 47.4824 49.0985 47.4824C48.7588 47.4824 48.4558 47.2987 48.2906 47.0049L46.7205 44.1219L43.8375 42.5519C43.5437 42.3866 43.36 42.0836 43.36 41.7439C43.36 41.4133 43.5437 41.1012 43.8375 40.9451L46.7205 39.3658L48.2906 36.492C48.6119 35.9044 49.5852 35.9044 49.9065 36.492L51.4766 39.3658L54.3504 40.9451C54.6442 41.1012 54.8278 41.4133 54.8278 41.7439Z" fill="#8E8DFF"/>
<path d="M68.8023 40.7683V27.5149H77.1115V29.2363H70.8019V33.2744H76.6779V34.9894H70.8019V39.0469H77.1892V40.7683H68.8023ZM81.5622 34.8664V40.7683H79.6273V30.8282H81.4846V32.4461H81.6075C81.8362 31.9198 82.1943 31.497 82.6818 31.1777C83.1736 30.8584 83.7927 30.6988 84.5391 30.6988C85.2164 30.6988 85.8096 30.8412 86.3187 31.1259C86.8278 31.4064 87.2225 31.8248 87.503 32.3814C87.7834 32.9379 87.9236 33.626 87.9236 34.4458V40.7683H85.9887V34.6787C85.9887 33.9582 85.801 33.3952 85.4257 32.9897C85.0503 32.5798 84.5348 32.3749 83.879 32.3749C83.4303 32.3749 83.0312 32.472 82.6818 32.6661C82.3366 32.8603 82.0627 33.145 81.8599 33.5203C81.6615 33.8914 81.5622 34.3401 81.5622 34.8664ZM92.4536 34.8664V40.7683H90.5186V27.5149H92.4277V32.4461H92.5507C92.7836 31.9111 93.1396 31.4862 93.6184 31.1712C94.0973 30.8563 94.7229 30.6988 95.4951 30.6988C96.1768 30.6988 96.7722 30.839 97.2813 31.1195C97.7946 31.3999 98.1916 31.8184 98.472 32.3749C98.7567 32.9271 98.8991 33.6174 98.8991 34.4458V40.7683H96.9642V34.6787C96.9642 33.9496 96.7765 33.3844 96.4011 32.9832C96.0258 32.5777 95.5038 32.3749 94.8351 32.3749C94.3778 32.3749 93.9679 32.472 93.6055 32.6661C93.2474 32.8603 92.9648 33.145 92.7577 33.5203C92.555 33.8914 92.4536 34.3401 92.4536 34.8664ZM104.374 40.9883C103.744 40.9883 103.175 40.8719 102.665 40.6389C102.156 40.4016 101.753 40.0586 101.455 39.6099C101.162 39.1612 101.015 38.6112 101.015 37.9597C101.015 37.3989 101.123 36.9372 101.339 36.5748C101.555 36.2124 101.846 35.9255 102.212 35.7142C102.579 35.5028 102.989 35.3431 103.442 35.2353C103.895 35.1274 104.357 35.0454 104.827 34.9894C105.422 34.9203 105.905 34.8642 106.276 34.8211C106.648 34.7736 106.917 34.6981 107.085 34.5946C107.254 34.4911 107.338 34.3228 107.338 34.0898V34.0445C107.338 33.4794 107.178 33.0415 106.859 32.7308C106.544 32.4202 106.074 32.2649 105.448 32.2649C104.797 32.2649 104.283 32.4094 103.908 32.6985C103.537 32.9832 103.28 33.3003 103.138 33.6498L101.319 33.2356C101.535 32.6316 101.85 32.1441 102.264 31.7731C102.683 31.3977 103.164 31.1259 103.707 30.9577C104.251 30.7851 104.823 30.6988 105.422 30.6988C105.819 30.6988 106.24 30.7463 106.684 30.8412C107.133 30.9318 107.551 31.1 107.94 31.346C108.332 31.5919 108.654 31.9435 108.904 32.4008C109.154 32.8538 109.279 33.4427 109.279 34.1675V40.7683H107.39V39.4093H107.312C107.187 39.6595 106.999 39.9055 106.749 40.1471C106.499 40.3887 106.177 40.5893 105.785 40.7489C105.392 40.9085 104.922 40.9883 104.374 40.9883ZM104.795 39.4352C105.33 39.4352 105.787 39.3295 106.166 39.1181C106.55 38.9067 106.842 38.6306 107.04 38.2898C107.243 37.9446 107.344 37.5758 107.344 37.1832V35.9018C107.275 35.9708 107.142 36.0356 106.943 36.096C106.749 36.152 106.527 36.2017 106.276 36.2448C106.026 36.2836 105.783 36.3203 105.545 36.3548C105.308 36.385 105.109 36.4109 104.95 36.4325C104.575 36.4799 104.232 36.5597 103.921 36.6719C103.615 36.7841 103.369 36.9459 103.183 37.1573C103.002 37.3644 102.911 37.6405 102.911 37.9856C102.911 38.4645 103.088 38.8269 103.442 39.0728C103.796 39.3144 104.247 39.4352 104.795 39.4352ZM113.791 34.8664V40.7683H111.856V30.8282H113.714V32.4461H113.837C114.065 31.9198 114.423 31.497 114.911 31.1777C115.403 30.8584 116.022 30.6988 116.768 30.6988C117.446 30.6988 118.039 30.8412 118.548 31.1259C119.057 31.4064 119.452 31.8248 119.732 32.3814C120.013 32.9379 120.153 33.626 120.153 34.4458V40.7683H118.218V34.6787C118.218 33.9582 118.03 33.3952 117.655 32.9897C117.279 32.5798 116.764 32.3749 116.108 32.3749C115.659 32.3749 115.26 32.472 114.911 32.6661C114.566 32.8603 114.292 33.145 114.089 33.5203C113.891 33.8914 113.791 34.3401 113.791 34.8664ZM126.935 40.9689C125.973 40.9689 125.144 40.7511 124.45 40.3153C123.76 39.8753 123.229 39.2691 122.858 38.4969C122.487 37.7246 122.301 36.8402 122.301 35.8436C122.301 34.834 122.491 33.9431 122.871 33.1709C123.25 32.3943 123.785 31.7882 124.476 31.3524C125.166 30.9167 125.979 30.6988 126.915 30.6988C127.67 30.6988 128.343 30.839 128.934 31.1195C129.526 31.3956 130.002 31.7839 130.365 32.2843C130.731 32.7848 130.949 33.3693 131.018 34.0381H129.135C129.032 33.5721 128.794 33.1709 128.423 32.8344C128.057 32.4979 127.565 32.3296 126.948 32.3296C126.408 32.3296 125.936 32.472 125.531 32.7567C125.129 33.0371 124.817 33.4384 124.592 33.9604C124.368 34.4781 124.256 35.0907 124.256 35.7983C124.256 36.5231 124.366 37.1486 124.586 37.675C124.806 38.2013 125.116 38.609 125.518 38.8981C125.923 39.1871 126.4 39.3317 126.948 39.3317C127.314 39.3317 127.647 39.2648 127.944 39.131C128.246 38.993 128.499 38.7967 128.701 38.5422C128.909 38.2876 129.053 37.9813 129.135 37.6232H131.018C130.949 38.266 130.74 38.8398 130.391 39.3446C130.041 39.8494 129.573 40.2463 128.986 40.5353C128.404 40.8244 127.72 40.9689 126.935 40.9689ZM137.372 40.9689C136.392 40.9689 135.549 40.7597 134.841 40.3412C134.138 39.9184 133.594 39.3252 133.21 38.5616C132.831 37.7936 132.641 36.8941 132.641 35.863C132.641 34.8448 132.831 33.9475 133.21 33.1709C133.594 32.3943 134.129 31.7882 134.815 31.3524C135.506 30.9167 136.312 30.6988 137.236 30.6988C137.797 30.6988 138.34 30.7916 138.866 30.9771C139.393 31.1626 139.865 31.4538 140.284 31.8507C140.702 32.2476 141.032 32.7632 141.274 33.3974C141.515 34.0273 141.636 34.7931 141.636 35.6947V36.3807H133.735V34.9311H139.74C139.74 34.422 139.637 33.9712 139.429 33.5786C139.222 33.1817 138.931 32.8689 138.556 32.6402C138.185 32.4116 137.749 32.2973 137.249 32.2973C136.705 32.2973 136.23 32.431 135.825 32.6985C135.424 32.9616 135.113 33.3068 134.893 33.7339C134.677 34.1567 134.569 34.6162 134.569 35.1123V36.2448C134.569 36.9092 134.686 37.4744 134.919 37.9403C135.156 38.4063 135.486 38.7622 135.909 39.0081C136.332 39.2497 136.826 39.3705 137.391 39.3705C137.758 39.3705 138.092 39.3187 138.394 39.2152C138.696 39.1073 138.957 38.9477 139.177 38.7363C139.397 38.5249 139.565 38.2639 139.682 37.9533L141.513 38.2833C141.367 38.8226 141.103 39.295 140.724 39.7005C140.348 40.1018 139.876 40.4145 139.306 40.6389C138.741 40.8589 138.096 40.9689 137.372 40.9689ZM147.504 40.9625C146.702 40.9625 145.986 40.7575 145.356 40.3477C144.73 39.9335 144.238 39.3446 143.88 38.581C143.526 37.813 143.35 36.8919 143.35 35.8177C143.35 34.7434 143.529 33.8245 143.887 33.0609C144.249 32.2973 144.745 31.7127 145.375 31.3071C146.005 30.9016 146.719 30.6988 147.517 30.6988C148.134 30.6988 148.63 30.8024 149.006 31.0094C149.385 31.2122 149.679 31.4495 149.886 31.7213C150.097 31.9931 150.261 32.2325 150.377 32.4396H150.494V27.5149H152.429V40.7683H150.539V39.2216H150.377C150.261 39.433 150.093 39.6746 149.873 39.9464C149.657 40.2182 149.359 40.4555 148.98 40.6583C148.6 40.8611 148.108 40.9625 147.504 40.9625ZM147.931 39.3122C148.488 39.3122 148.958 39.1656 149.342 38.8722C149.73 38.5745 150.024 38.1625 150.222 37.6362C150.425 37.1098 150.526 36.4972 150.526 35.7983C150.526 35.108 150.427 34.504 150.229 33.9863C150.03 33.4686 149.739 33.0652 149.355 32.7761C148.971 32.4871 148.496 32.3426 147.931 32.3426C147.349 32.3426 146.863 32.4936 146.475 32.7956C146.087 33.0975 145.794 33.5096 145.595 34.0316C145.401 34.5536 145.304 35.1425 145.304 35.7983C145.304 36.4627 145.403 37.0602 145.602 37.5909C145.8 38.1215 146.093 38.5422 146.482 38.8528C146.874 39.1591 147.357 39.3122 147.931 39.3122ZM160.169 40.7683V27.5149H164.893C165.924 27.5149 166.778 27.7026 167.455 28.0779C168.133 28.4532 168.64 28.9666 168.976 29.6181C169.313 30.2652 169.481 30.9943 169.481 31.8054C169.481 32.6208 169.311 33.3542 168.97 34.0057C168.633 34.6528 168.124 35.1662 167.443 35.5459C166.765 35.9212 165.913 36.1089 164.886 36.1089H161.638V34.4134H164.705C165.357 34.4134 165.885 34.3012 166.291 34.0769C166.696 33.8482 166.994 33.5376 167.184 33.145C167.373 32.7524 167.468 32.3059 167.468 31.8054C167.468 31.305 167.373 30.8606 167.184 30.4723C166.994 30.084 166.694 29.7799 166.284 29.5599C165.879 29.3398 165.344 29.2298 164.679 29.2298H162.168V40.7683H160.169ZM171.67 40.7683V30.8282H173.54V32.4073H173.644C173.825 31.8723 174.144 31.4517 174.601 31.1453C175.063 30.8347 175.585 30.6794 176.168 30.6794C176.288 30.6794 176.431 30.6837 176.595 30.6923C176.763 30.701 176.895 30.7118 176.989 30.7247V32.5755C176.912 32.554 176.774 32.5302 176.575 32.5043C176.377 32.4741 176.178 32.459 175.98 32.459C175.523 32.459 175.115 32.5561 174.757 32.7503C174.403 32.9401 174.123 33.2054 173.916 33.5462C173.708 33.8827 173.605 34.2667 173.605 34.6981V40.7683H171.67ZM182.495 40.9689C181.563 40.9689 180.75 40.7554 180.055 40.3283C179.361 39.9011 178.821 39.3036 178.437 38.5357C178.053 37.7677 177.861 36.8704 177.861 35.8436C177.861 34.8125 178.053 33.9108 178.437 33.1385C178.821 32.3663 179.361 31.7666 180.055 31.3395C180.75 30.9124 181.563 30.6988 182.495 30.6988C183.427 30.6988 184.24 30.9124 184.935 31.3395C185.629 31.7666 186.169 32.3663 186.553 33.1385C186.937 33.9108 187.128 34.8125 187.128 35.8436C187.128 36.8704 186.937 37.7677 186.553 38.5357C186.169 39.3036 185.629 39.9011 184.935 40.3283C184.24 40.7554 183.427 40.9689 182.495 40.9689ZM182.501 39.3446C183.105 39.3446 183.606 39.185 184.003 38.8657C184.4 38.5465 184.693 38.1215 184.883 37.5909C185.077 37.0602 185.174 36.4756 185.174 35.8371C185.174 35.2029 185.077 34.6205 184.883 34.0898C184.693 33.5549 184.4 33.1256 184.003 32.802C183.606 32.4785 183.105 32.3167 182.501 32.3167C181.893 32.3167 181.388 32.4785 180.987 32.802C180.59 33.1256 180.295 33.5549 180.101 34.0898C179.911 34.6205 179.816 35.2029 179.816 35.8371C179.816 36.4756 179.911 37.0602 180.101 37.5909C180.295 38.1215 180.59 38.5465 180.987 38.8657C181.388 39.185 181.893 39.3446 182.501 39.3446ZM194.019 30.8282V32.3814H188.402V30.8282H194.019ZM189.942 40.7683V29.6763C189.942 29.0551 190.078 28.5395 190.35 28.1297C190.621 27.7155 190.982 27.407 191.43 27.2043C191.879 26.9972 192.367 26.8936 192.893 26.8936C193.281 26.8936 193.613 26.926 193.889 26.9907C194.166 27.0511 194.371 27.1072 194.504 27.159L194.051 28.725C193.961 28.6992 193.844 28.669 193.702 28.6344C193.559 28.5956 193.387 28.5762 193.184 28.5762C192.714 28.5762 192.377 28.6927 192.175 28.9257C191.976 29.1586 191.877 29.4951 191.877 29.9352V40.7683H189.942ZM196.015 40.7683V30.8282H197.95V40.7683H196.015ZM196.993 29.2945C196.656 29.2945 196.367 29.1824 196.125 28.958C195.888 28.7294 195.769 28.4576 195.769 28.1426C195.769 27.8234 195.888 27.5516 196.125 27.3272C196.367 27.0986 196.656 26.9842 196.993 26.9842C197.329 26.9842 197.616 27.0986 197.853 27.3272C198.095 27.5516 198.216 27.8234 198.216 28.1426C198.216 28.4576 198.095 28.7294 197.853 28.958C197.616 29.1824 197.329 29.2945 196.993 29.2945ZM202.488 27.5149V40.7683H200.553V27.5149H202.488ZM209.376 40.9689C208.396 40.9689 207.553 40.7597 206.845 40.3412C206.142 39.9184 205.598 39.3252 205.214 38.5616C204.835 37.7936 204.645 36.8941 204.645 35.863C204.645 34.8448 204.835 33.9475 205.214 33.1709C205.598 32.3943 206.133 31.7882 206.819 31.3524C207.51 30.9167 208.316 30.6988 209.24 30.6988C209.8 30.6988 210.344 30.7916 210.87 30.9771C211.397 31.1626 211.869 31.4538 212.288 31.8507C212.706 32.2476 213.036 32.7632 213.278 33.3974C213.519 34.0273 213.64 34.7931 213.64 35.6947V36.3807H205.739V34.9311H211.744C211.744 34.422 211.641 33.9712 211.433 33.5786C211.226 33.1817 210.935 32.8689 210.56 32.6402C210.189 32.4116 209.753 32.2973 209.253 32.2973C208.709 32.2973 208.234 32.431 207.829 32.6985C207.428 32.9616 207.117 33.3068 206.897 33.7339C206.681 34.1567 206.573 34.6162 206.573 35.1123V36.2448C206.573 36.9092 206.69 37.4744 206.923 37.9403C207.16 38.4063 207.49 38.7622 207.913 39.0081C208.336 39.2497 208.83 39.3705 209.395 39.3705C209.762 39.3705 210.096 39.3187 210.398 39.2152C210.7 39.1073 210.961 38.9477 211.181 38.7363C211.401 38.5249 211.569 38.2639 211.686 37.9533L213.517 38.2833C213.371 38.8226 213.107 39.295 212.728 39.7005C212.352 40.1018 211.88 40.4145 211.31 40.6389C210.745 40.8589 210.1 40.9689 209.376 40.9689Z" fill="#2A3F5E"/>
</g>
<defs>
<filter id="filter0_d_168_2323" x="0" y="0" width="250.877" height="76.9995" filterUnits="userSpaceOnUse" color-interpolation-filters="sRGB">
<feFlood flood-opacity="0" result="BackgroundImageFix"/>
<feColorMatrix in="SourceAlpha" type="matrix" values="0 0 0 0 0 0 0 0 0 0 0 0 0 0 0 0 0 0 127 0" result="hardAlpha"/>
<feOffset dy="4"/>
<feGaussianBlur stdDeviation="6.5"/>
<feComposite in2="hardAlpha" operator="out"/>
<feColorMatrix type="matrix" values="0 0 0 0 0 0 0 0 0 0 0 0 0 0 0 0 0 0 0.13 0"/>
<feBlend mode="normal" in2="BackgroundImageFix" result="effect1_dropShadow_168_2323"/>
<feBlend mode="normal" in="SourceGraphic" in2="effect1_dropShadow_168_2323" result="shape"/>
</filter>
</defs>
</svg>
